<svg width="40" height="40" viewBox="0 0 40 40" fill="none" xmlns="http://www.w3.org/2000/svg">
<path d="M17.795 27.4998C18.3826 28.0185 19.1544 28.3332 19.9998 28.3332C20.8452 28.3332 21.6171 28.0185 22.2047 27.4998M24.9998 16.6665C24.9998 15.3404 24.473 14.0687 23.5353 13.131C22.5977 12.1933 21.3259 11.6665 19.9998 11.6665C18.6737 11.6665 17.402 12.1933 16.4643 13.131C15.5266 14.0687 14.9998 15.3404 14.9998 16.6665C14.9998 19.2417 14.3502 21.0048 13.6245 22.171C13.0124 23.1547 12.7064 23.6466 12.7176 23.7838C12.73 23.9357 12.7622 23.9937 12.8846 24.0845C12.9952 24.1665 13.4936 24.1665 14.4905 24.1665H25.5091C26.506 24.1665 27.0044 24.1665 27.115 24.0845C27.2374 23.9937 27.2696 23.9357 27.282 23.7838C27.2933 23.6466 26.9872 23.1547 26.3751 22.171C25.6494 21.0048 24.9998 19.2417 24.9998 16.6665Z" stroke="#475467" stroke-width="1.66667" stroke-linecap="round" stroke-linejoin="round"/>
</svg>
